<svg width="48.000000" height="48.000000" viewBox="0 0 48 48" fill="none" xmlns="http://www.w3.org/2000/svg" xmlns:xlink="http://www.w3.org/1999/xlink">
	<desc>
			Created with Pixso.
	</desc>
	<defs/>
	<rect id="bg" width="48.000000" height="48.000000" fill="#DAE2FF" fill-opacity="1.000000"/>
	<rect id="vuesax/bold/android" width="34.000000" height="34.000000" transform="translate(7.000000 7.000000)" fill="#FFFFFF" fill-opacity="0"/>
	<g opacity="0.580000"/>
	<path id="Vector" d="M22.5833 32.5L22.5833 36.75C22.5833 37.5292 21.9458 38.1667 21.1667 38.1667C20.3875 38.1667 19.75 37.5292 19.75 36.75L19.75 32.5L22.5833 32.5Z" fill="#305DFF" fill-opacity="1.000000" fill-rule="nonzero"/>
	<path id="Vector" d="M28.2501 32.5L28.2501 36.75C28.2501 37.5292 27.6126 38.1667 26.8334 38.1667C26.0542 38.1667 25.4167 37.5292 25.4167 36.75L25.4167 32.5L28.2501 32.5Z" fill="#305DFF" fill-opacity="1.000000" fill-rule="nonzero"/>
	<path id="Vector" d="M31.0834 22.5833L31.0834 29.6667C31.0834 31.225 29.8084 32.5 28.2501 32.5L19.7501 32.5C18.1917 32.5 16.9167 31.225 16.9167 29.6667L16.9167 22.5833C16.9167 21.025 18.1917 19.75 19.7501 19.75L28.2501 19.75C29.8084 19.75 31.0834 21.025 31.0834 22.5833Z" fill="#305DFF" fill-opacity="1.000000" fill-rule="nonzero"/>
	<path id="Vector" d="M14.0833 22.5834L14.0833 28.2501C14.0833 29.0293 13.4458 29.6667 12.6667 29.6667C11.8875 29.6667 11.25 29.0293 11.25 28.2501L11.25 22.5834C11.25 21.8042 11.8875 21.1667 12.6667 21.1667C13.4458 21.1667 14.0833 21.8042 14.0833 22.5834Z" fill="#305DFF" fill-opacity="1.000000" fill-rule="nonzero"/>
	<path id="Vector" d="M36.7501 22.5834L36.7501 28.2501C36.7501 29.0293 36.1126 29.6667 35.3334 29.6667C34.5542 29.6667 33.9167 29.0293 33.9167 28.2501L33.9167 22.5834C33.9167 21.8042 34.5542 21.1667 35.3334 21.1667C36.1126 21.1667 36.7501 21.8042 36.7501 22.5834Z" fill="#305DFF" fill-opacity="1.000000" fill-rule="nonzero"/>
	<path id="Vector" d="M20.5999 17.7666L27.4 17.7666C28.6466 17.7666 29.6666 16.7466 29.6666 15.4999C29.6666 12.3691 27.1308 9.83325 23.9999 9.83325C20.8691 9.83325 18.3333 12.3691 18.3333 15.4999C18.3333 16.7466 19.3532 17.7666 20.5999 17.7666Z" fill="#305DFF" fill-opacity="1.000000" fill-rule="nonzero"/>
	<g opacity="0.000000"/>
</svg>
