<svg width="48.000000" height="48.000000" viewBox="0 0 48 48" fill="none" xmlns="http://www.w3.org/2000/svg" xmlns:xlink="http://www.w3.org/1999/xlink">
	<desc>
			Created with Pixso.
	</desc>
	<defs/>
	<rect id="bg" width="48.000000" height="48.000000" fill="#D1F7FF" fill-opacity="1.000000"/>
	<rect id="vuesax/bold/apple" width="34.000000" height="34.000000" transform="translate(7.000000 7.000000)" fill="#FFFFFF" fill-opacity="0"/>
	<g opacity="0.580000"/>
	<path id="Vector" d="M34.0584 34.1432C34.8942 32.8682 35.2059 32.2165 35.8434 30.7857C31.14 29.0007 30.3892 22.2998 35.0359 19.7357C33.6192 17.9507 31.6217 16.9165 29.7375 16.9165C28.3775 16.9165 27.4425 17.2707 26.6067 17.5965C25.8984 17.8657 25.2609 18.1065 24.4675 18.1065C23.6175 18.1065 22.8667 17.8374 22.0734 17.554C21.2092 17.2424 20.3025 16.9165 19.1692 16.9165C17.0584 16.9165 14.8059 18.2057 13.375 20.4157C11.3634 23.5323 11.7175 29.369 14.9617 34.3557C16.1234 36.1407 17.6817 38.1382 19.7075 38.1665C20.5575 38.1807 21.11 37.9257 21.7192 37.6565C22.4134 37.3448 23.1642 37.0048 24.4817 37.0048C25.7992 36.9907 26.5359 37.3448 27.23 37.6565C27.825 37.9257 28.3634 38.1807 29.1992 38.1665C31.2534 38.1382 32.8967 35.9282 34.0584 34.1432Z" fill="#00BEE6" fill-opacity="1.000000" fill-rule="evenodd"/>
	<path id="Vector" d="M29.44 9.8335C29.6667 11.3918 29.0292 12.936 28.1933 14.0127C27.3008 15.1743 25.7425 16.081 24.2408 16.0243C23.9717 14.5227 24.6658 12.9785 25.5158 11.9443C26.465 10.811 28.0658 9.93266 29.44 9.8335Z" fill="#00BEE6" fill-opacity="1.000000" fill-rule="evenodd"/>
	<g opacity="0.000000"/>
</svg>
