<svg width="48.000000" height="48.000000" viewBox="0 0 48 48" fill="none" xmlns="http://www.w3.org/2000/svg" xmlns:xlink="http://www.w3.org/1999/xlink">
	<desc>
			Created with Pixso.
	</desc>
	<defs/>
	<rect id="bg" width="48.000000" height="48.000000" fill="#FFCCC1" fill-opacity="1.000000"/>
	<rect id="vuesax/bold/slack" width="30.000000" height="30.000000" transform="translate(9.000000 9.000000)" fill="#FFFFFF" fill-opacity="0"/>
	<g opacity="0.580000"/>
	<path id="Vector" d="M27.1749 11.3501C25.6374 11.3501 24.3875 12.6001 24.3875 14.1376L24.3875 19.9376C24.3875 21.4751 25.6374 22.7251 27.1749 22.7251C28.7124 22.7251 29.9625 21.4751 29.9625 19.9376L29.9625 14.1376C29.9625 12.6126 28.7124 11.3501 27.1749 11.3501Z" fill="#FF6534" fill-opacity="1.000000" fill-rule="nonzero"/>
	<path id="Vector" d="M34.225 17.8875C32.8875 17.8875 31.8 18.975 31.8 20.3125L31.8 22.275C31.8 22.5375 32.0125 22.75 32.275 22.75L34.2375 22.75C35.575 22.75 36.6626 21.6625 36.6626 20.325C36.6626 18.9875 35.5625 17.8875 34.225 17.8875Z" fill="#FF6534" fill-opacity="1.000000" fill-rule="nonzero"/>
	<path id="Vector" d="M19.625 17.7375L13.825 17.7375C12.2875 17.7375 11.0375 18.9876 11.0375 20.5251C11.0375 22.0626 12.2875 23.3126 13.825 23.3126L19.625 23.3126C21.1625 23.3126 22.4125 22.0626 22.4125 20.5251C22.4125 18.9876 21.1625 17.7375 19.625 17.7375Z" fill="#FF6534" fill-opacity="1.000000" fill-rule="nonzero"/>
	<path id="Vector" d="M19.9875 11.0249C18.65 11.0249 17.5625 12.1124 17.5625 13.4499C17.5625 14.7874 18.65 15.8749 19.9875 15.8749L21.95 15.8749C22.2125 15.8749 22.425 15.6624 22.425 15.3999L22.425 13.4374C22.4125 12.1249 21.325 11.0249 19.9875 11.0249Z" fill="#FF6534" fill-opacity="1.000000" fill-rule="nonzero"/>
	<path id="Vector" d="M20.7875 25.2876C19.25 25.2876 18 26.5376 18 28.0751L18 33.8751C18 35.4126 19.25 36.6626 20.7875 36.6626C22.325 36.6626 23.575 35.4126 23.575 33.8751L23.575 28.0751C23.575 26.5376 22.325 25.2876 20.7875 25.2876Z" fill="#FF6534" fill-opacity="1.000000" fill-rule="nonzero"/>
	<path id="Vector" d="M15.7 25.2876L13.7375 25.2876C12.4 25.2876 11.3125 26.3751 11.3125 27.7126C11.3125 29.0501 12.4 30.1376 13.7375 30.1376C15.075 30.1376 16.1625 29.0501 16.1625 27.7126L16.1625 25.7501C16.1625 25.5001 15.95 25.2876 15.7 25.2876Z" fill="#FF6534" fill-opacity="1.000000" fill-rule="nonzero"/>
	<path id="Vector" d="M34.1375 24.7124L28.3375 24.7124C26.8 24.7124 25.55 25.9624 25.55 27.4999C25.55 29.0374 26.8 30.2874 28.3375 30.2874L34.1375 30.2874C35.675 30.2874 36.925 29.0374 36.925 27.4999C36.925 25.9624 35.675 24.7124 34.1375 24.7124Z" fill="#FF6534" fill-opacity="1.000000" fill-rule="nonzero"/>
	<path id="Vector" d="M27.975 32.0874L26.0125 32.0874C25.75 32.0874 25.5375 32.2999 25.5375 32.5624L25.5375 34.5249C25.5375 35.8624 26.625 36.9499 27.9625 36.9499C29.3 36.9499 30.3875 35.8624 30.3875 34.5249C30.4 33.1749 29.3125 32.0874 27.975 32.0874Z" fill="#FF6534" fill-opacity="1.000000" fill-rule="nonzero"/>
	<g opacity="0.000000"/>
</svg>
